<?xml version="1.0" standalone="no"?>
<!DOCTYPE svg PUBLIC "-//W3C//DTD SVG 20010904//EN"
 "http://www.w3.org/TR/2001/REC-SVG-20010904/DTD/svg10.dtd">
<svg version="1.0" xmlns="http://www.w3.org/2000/svg"
 width="512.000000pt" height="512.000000pt" viewBox="0 0 512.000000 512.000000"
 preserveAspectRatio="xMidYMid meet">

<g transform="translate(0.000000,512.000000) scale(0.100000,-0.100000)"
fill="#000000" stroke="none">
<path d="M0 2560 l0 -2560 2560 0 2560 0 0 2560 0 2560 -2560 0 -2560 0 0
-2560z m2215 1475 c14 -13 25 -36 25 -50 0 -24 2 -25 66 -25 152 0 406 -53
576 -120 371 -147 636 -437 694 -760 22 -125 24 -121 -48 -86 -148 71 -345 37
-500 -85 l-37 -30 -83 26 c-158 51 -305 42 -438 -25 -55 -28 -62 -29 -83 -16
-12 8 -52 26 -90 41 -119 45 -289 30 -419 -36 l-37 -19 -45 30 c-80 55 -148
73 -266 73 -85 0 -119 -5 -178 -25 l-73 -25 -32 25 c-69 52 -137 76 -218 76
-66 0 -85 -5 -140 -32 -34 -17 -64 -30 -66 -28 -2 2 3 44 11 93 50 288 200
520 438 681 199 134 453 218 728 239 91 8 95 9 98 33 5 34 40 70 69 70 13 0
35 -11 48 -25z m272 -1448 l38 -26 62 19 c190 59 366 52 640 -26 19 -5 38 8
104 72 45 44 89 91 99 106 l17 28 27 -133 c87 -424 141 -668 191 -867 90 -363
138 -621 151 -827 8 -119 8 -119 80 -11 132 198 182 453 121 625 -13 40 -60
129 -102 199 -99 160 -137 249 -143 335 -4 53 0 73 17 106 42 83 136 124 237
103 210 -44 345 -374 314 -764 -11 -132 -12 -138 -47 -256 -65 -220 -204 -421
-376 -544 l-64 -46 4 -97 c5 -102 -10 -203 -43 -289 l-16 -42 -121 -6 c-625
-32 -748 -35 -882 -25 -202 15 -240 16 -550 25 -154 4 -284 8 -290 8 -5 1 -23
39 -40 86 -26 77 -29 97 -30 220 0 130 1 137 29 195 29 57 30 66 31 205 1 80
7 174 14 210 21 110 83 354 94 368 7 9 3 19 -15 35 -134 124 -187 450 -111
687 9 30 20 57 24 60 3 3 13 19 22 35 25 48 54 73 98 85 49 14 76 8 107 -20
25 -24 29 -71 8 -92 -39 -40 -88 -266 -64 -296 10 -11 14 -115 18 -436 4 -303
8 -427 17 -442 20 -34 78 -81 119 -94 46 -15 125 -7 167 18 38 22 83 85 92
129 6 32 5 33 -24 33 -25 0 -32 -5 -37 -28 -11 -42 -32 -69 -69 -86 -72 -34
-156 -10 -192 56 -16 30 -18 66 -20 351 -2 199 1 317 7 317 6 0 10 -3 10 -7 0
-16 137 -157 143 -147 3 6 -13 30 -36 55 -23 24 -60 69 -82 99 -40 54 -40 56
-39 140 0 47 11 135 23 195 17 87 81 541 81 578 0 5 33 -27 74 -70 41 -44 92
-91 113 -106z"/>
<path d="M2465 3794 c11 -8 55 -38 98 -66 192 -125 347 -336 391 -534 l16 -69
-6 56 c-10 106 -43 184 -137 324 -67 100 -182 202 -300 269 -66 37 -98 47 -62
20z"/>
<path d="M2029 3703 c-134 -146 -231 -509 -190 -708 7 -31 9 -16 10 70 3 228
70 473 166 600 25 33 45 61 45 62 0 7 -8 1 -31 -24z"/>
<path d="M2260 3707 c0 -2 15 -37 34 -78 18 -41 41 -99 49 -129 23 -82 47
-257 47 -345 0 -100 9 -93 13 9 4 93 -24 298 -51 376 -23 67 -68 156 -82 165
-5 3 -10 4 -10 2z"/>
<path d="M1639 3663 c-76 -52 -98 -75 -177 -185 -45 -62 -82 -128 -102 -180
-37 -97 -70 -219 -62 -233 3 -5 9 2 13 15 3 14 15 54 25 90 55 198 196 409
334 501 24 16 38 29 33 29 -6 0 -35 -17 -64 -37z"/>
<path d="M2965 3110 c-3 -5 -1 -18 4 -27 9 -16 10 -14 11 10 0 28 -5 34 -15
17z"/>
<path d="M2335 2607 c-4 -19 -5 -44 -3 -55 3 -20 4 -20 38 6 l36 27 -32 28
-33 28 -6 -34z"/>
<path d="M3381 2598 c-19 -21 -32 -40 -30 -42 2 -1 21 -15 42 -31 l38 -28 -7
69 c-4 38 -7 69 -8 70 0 0 -16 -17 -35 -38z"/>
<path d="M2363 2264 c-7 -18 15 -36 35 -29 6 2 12 -2 12 -10 0 -26 42 -95 64
-107 11 -6 31 -19 43 -30 40 -37 131 -6 176 59 14 21 29 50 32 65 5 20 13 27
28 25 16 -1 23 4 25 21 l3 22 -206 0 c-179 0 -206 -2 -212 -16z m178 -39 c1
-19 -29 -29 -45 -16 -9 8 -16 17 -16 21 0 11 60 6 61 -5z"/>
<path d="M3022 2258 c2 -16 9 -22 21 -20 11 2 17 -4 17 -18 0 -35 36 -89 80
-121 73 -53 149 -39 199 38 16 24 33 58 36 74 4 16 12 29 18 28 33 -4 47 2 47
21 0 19 -7 20 -211 20 l-210 0 3 -22z m176 -35 c-4 -23 -51 -25 -56 -3 -2 11
7 16 28 18 25 2 31 -1 28 -15z"/>
<path d="M2875 2110 c-9 -14 22 -60 40 -60 16 0 48 54 38 64 -10 10 -71 7 -78
-4z"/>
<path d="M3257 1173 c-3 -10 -5 -74 -6 -143 -2 -185 -37 -373 -85 -454 -33
-57 -87 -109 -132 -131 -91 -42 -119 -114 -68 -175 26 -30 29 -31 95 -28 38 1
69 6 69 10 0 4 7 8 15 8 57 0 230 128 265 197 8 15 18 30 21 33 7 5 32 58 76
161 11 25 26 69 34 99 9 35 20 55 31 58 10 2 18 8 18 12 0 8 70 28 114 32 16
2 31 9 34 16 5 17 -81 15 -130 -2 -42 -15 -44 -13 -29 44 14 52 21 135 10 119
-5 -8 -9 -27 -9 -43 0 -15 -11 -75 -25 -132 -23 -90 -38 -132 -98 -264 -6 -14
-22 -39 -34 -56 -13 -17 -23 -36 -23 -43 0 -27 -124 -140 -184 -169 -113 -54
-147 -60 -203 -40 -29 11 -33 16 -33 49 0 31 6 43 33 63 19 15 40 26 48 26 21
1 80 60 116 116 36 57 73 159 73 204 0 17 5 40 10 51 15 27 26 384 12 393 -6
3 -13 -2 -15 -11z"/>
<path d="M1990 866 c0 -12 11 -16 43 -17 23 -1 48 -1 55 0 6 1 12 -3 12 -9 0
-5 14 -10 30 -10 17 0 30 -4 30 -9 0 -5 11 -11 24 -15 33 -8 122 -102 141
-150 10 -23 20 -48 24 -56 5 -8 14 -45 21 -81 l13 -66 71 -12 c39 -7 80 -20
91 -29 32 -27 55 -69 55 -101 0 -16 5 -33 10 -36 17 -11 11 69 -7 95 -41 59
-93 95 -150 105 l-42 7 -21 91 c-11 51 -30 104 -41 119 -10 15 -19 31 -19 36
0 18 -95 94 -148 119 -71 33 -192 45 -192 19z"/>
</g>
</svg>
